<svg xmlns="http://www.w3.org/2000/svg" version="1.1" xmlns:xlink="http://www.w3.org/1999/xlink" width="2000" height="703" viewBox="0 0 2000 703"><svg xml:space="preserve" width="2000" height="703" data-version="2" data-id="lg_4tdpUeTZ0p3aDN2mS0" viewBox="0 0 572 201" x="0" y="0">
    <g transform="matrix(1 0 0 1 57.745 100.865)">
        <linearGradient id="a" x1="-.012" x2="6.335" y1="0" y2="0" gradientUnits="objectBoundingBox">
            <stop offset="0%" stop-color="#00f5ff"></stop>
            <stop offset="100%" stop-color="#d154f0"></stop>
        </linearGradient>
        <path fill="url(#a)" d="M-250.24 27.16q.86 4.84 3.8 8.48 2.94 3.63 7.7 5.62 4.76 1.99 10.99 1.99 10.2 0 15.22-4.58 5.02-4.59 5.02-11.16 0-5.19-3.12-8.65-3.11-3.46-8.73-5.89-5.63-2.42-13.07-4.67-6.92-2.07-13.75-4.49-6.83-2.43-12.28-6.06-5.45-3.63-8.65-9.43-3.2-5.79-3.2-14.62 0-11.07 5.45-18.85 5.45-7.79 14.96-11.77 9.52-3.98 21.97-3.98 10.56 0 19.03 3.03 8.48 3.03 14.28 8.82 5.79 5.8 8.56 14.28l-21.63 5.88q-.86-3.81-3.8-6.58-2.94-2.76-7.18-4.41-4.24-1.64-8.91-1.64-5.19-.17-9.52 1.56-4.32 1.73-6.92 5.01-2.59 3.29-2.59 7.62 0 4.84 2.94 7.69 2.94 2.86 7.78 4.85 4.85 1.99 10.9 3.89 7.1 2.08 14.45 4.76 7.35 2.68 13.41 6.75 6.05 4.06 9.77 10.29 3.72 6.23 3.72 15.74 0 10.04-4.76 18.17-4.75 8.13-14.27 12.97-9.51 4.85-23.87 4.85-11.77 0-21.37-3.46-9.6-3.46-15.83-10.12-6.23-6.67-8.13-15.83Z" transform="translate(227.755 -.865)"></path>
    </g>
    <rect width="88.23" height="123.53" x="-44.115" y="-61.765" fill="none" rx="0" ry="0" transform="matrix(1 0 0 1 58.245 101.365)"></rect>
    <g transform="matrix(1 0 0 1 159.38 118.165)">
        <linearGradient id="b" x1="-1.168" x2="5.166" y1="0" y2="0" gradientUnits="objectBoundingBox">
            <stop offset="0%" stop-color="#00f5ff"></stop>
            <stop offset="100%" stop-color="#d154f0"></stop>
        </linearGradient>
        <path fill="url(#b)" d="M-126.72 62.63q-12.63 0-22.49-5.45-9.86-5.45-15.49-15.4-5.62-9.95-5.62-23.44 0-13.67 5.8-23.7 5.79-10.04 15.83-15.49 10.03-5.45 22.49-5.45 12.45 0 22.49 5.45 10.03 5.45 15.91 15.4 5.88 9.95 5.88 23.44 0 13.67-5.96 23.7-5.97 10.04-16.09 15.49-10.12 5.45-22.75 5.45m-.18-19.9q5.37 0 10.21-2.68 4.85-2.68 7.96-8.13 3.11-5.45 3.11-13.93 0-8.13-2.94-13.58-2.94-5.45-7.7-8.13-4.75-2.68-10.29-2.68-5.36 0-9.95 2.68-4.58 2.68-7.35 8.13-2.77 5.45-2.77 13.93 0 8.13 2.68 13.58 2.69 5.45 7.18 8.13 4.5 2.68 9.86 2.68" transform="translate(126.12 -18.165)"></path>
    </g>
    <rect width="88.4" height="88.93" x="-44.2" y="-44.465" fill="none" rx="0" ry="0" transform="matrix(1 0 0 1 159.88 118.665)"></rect>
    <g transform="matrix(1 0 0 1 231.785 99.135)">
        <linearGradient id="c" x1="-9.234" x2="16.055" y1="0" y2="0" gradientUnits="objectBoundingBox">
            <stop offset="0%" stop-color="#00f5ff"></stop>
            <stop offset="100%" stop-color="#d154f0"></stop>
        </linearGradient>
        <path fill="url(#c)" d="M-64.79-63.14h22.15V61.41h-22.15Z" transform="translate(53.715 .865)"></path>
    </g>
    <rect width="22.15" height="124.55" x="-11.075" y="-62.275" fill="none" rx="0" ry="0" transform="matrix(1 0 0 1 232.285 99.635)"></rect>
    <g transform="matrix(1 0 0 1 314.13 100.865)">
        <linearGradient id="d" x1="-2.532" x2="3.187" y1="0" y2="0" gradientUnits="objectBoundingBox">
            <stop offset="0%" stop-color="#00f5ff"></stop>
            <stop offset="100%" stop-color="#d154f0"></stop>
        </linearGradient>
        <path fill="url(#d)" d="M51.12-24.74q0-7.61-4.84-11.5-4.85-3.9-13.67-3.9H3.03v30.63h29.41q8.82 0 13.75-3.9 4.93-3.89 4.93-11.33m-71.45 86.15V-59.68H35.9q12.63 0 21.28 4.23 8.65 4.24 13.06 11.42t4.41 16.18q0 7.96-2.94 13.49-2.94 5.54-8.05 8.74-5.1 3.2-11.67 4.41V.17q7.95 1.04 13.66 4.41 5.71 3.38 8.83 9.43 3.11 6.06 3.11 14.71 0 9.51-4.67 16.87-4.67 7.35-13.58 11.59-8.91 4.23-21.37 4.23ZM3.03 41.87h31.83q9.17 0 14.27-4.07 5.11-4.07 5.11-11.85 0-8.13-5.45-12.28-5.45-4.16-14.45-4.16H3.03Z" transform="translate(-28.63 -.865)"></path>
    </g>
    <rect width="97.92" height="121.09" x="-48.96" y="-60.545" fill="none" rx="0" ry="0" transform="matrix(1 0 0 1 314.63 101.365)"></rect>
    <g transform="matrix(1 0 0 1 419.405 118.165)">
        <linearGradient id="e" x1="-4.337" x2="2.31" y1="0" y2="0" gradientUnits="objectBoundingBox">
            <stop offset="0%" stop-color="#00f5ff"></stop>
            <stop offset="100%" stop-color="#d154f0"></stop>
        </linearGradient>
        <path fill="url(#e)" d="M135.37 62.63q-12.97 0-22.83-5.71-9.86-5.71-15.31-15.92-5.45-10.21-5.45-23.53 0-12.8 5.45-22.66t14.96-15.48q9.52-5.63 21.8-5.63 12.45 0 21.97 5.37 9.51 5.36 14.79 14.96 5.28 9.6 5.28 22.4 0 1.91-.26 4.24-.26 2.34-.61 4.93h-59.51q.69 5.54 3.55 9.43 2.85 3.89 7.09 6.06 4.24 2.16 9.6 2.16 6.4 0 11.51-2.6 5.1-2.59 7.35-7.09l19.55 5.88q-5.19 11.08-15.4 17.13-10.21 6.06-23.53 6.06m16.44-53.12q-.18-4.84-2.6-8.73-2.42-3.89-6.4-6.06-3.98-2.16-8.82-2.16-4.33 0-8.13 2.16-3.81 2.17-6.49 5.97-2.68 3.81-3.55 8.82Z" transform="translate(-133.905 -18.165)"></path>
    </g>
    <rect width="84.25" height="88.93" x="-42.125" y="-44.465" fill="none" rx="0" ry="0" transform="matrix(1 0 0 1 419.905 118.665)"></rect>
    <g transform="matrix(1 0 0 1 516.285 118.165)">
        <linearGradient id="f" x1="-5.487" x2="1.16" y1="0" y2="0" gradientUnits="objectBoundingBox">
            <stop offset="0%" stop-color="#00f5ff"></stop>
            <stop offset="100%" stop-color="#d154f0"></stop>
        </linearGradient>
        <path fill="url(#f)" d="M232.25 62.63q-12.97 0-22.83-5.71-9.86-5.71-15.31-15.92-5.45-10.21-5.45-23.53 0-12.8 5.45-22.66t14.96-15.48q9.52-5.63 21.8-5.63 12.45 0 21.97 5.37 9.51 5.36 14.79 14.96 5.28 9.6 5.28 22.4 0 1.91-.26 4.24-.26 2.34-.61 4.93h-59.51q.69 5.54 3.55 9.43 2.85 3.89 7.09 6.06 4.24 2.16 9.6 2.16 6.4 0 11.51-2.6 5.1-2.59 7.35-7.09l19.55 5.88q-5.19 11.08-15.4 17.13-10.21 6.06-23.53 6.06m16.44-53.12q-.18-4.84-2.6-8.73-2.42-3.89-6.4-6.06-3.98-2.16-8.82-2.16-4.33 0-8.13 2.16-3.81 2.17-6.49 5.97-2.68 3.81-3.55 8.82Z" transform="translate(-230.785 -18.165)"></path>
    </g>
    <rect width="84.25" height="88.93" x="-42.125" y="-44.465" fill="none" rx="0" ry="0" transform="matrix(1 0 0 1 516.785 118.665)"></rect>
    <rect width="560" height="196.156" x="-280" y="-98.078" fill="none" rx="0" ry="0" transform="matrix(1 0 0 1 286 100.5)"></rect>
</svg></svg>